<?xml version="1.0" standalone="no"?>
<!DOCTYPE svg PUBLIC "-//W3C//DTD SVG 20010904//EN"
 "http://www.w3.org/TR/2001/REC-SVG-20010904/DTD/svg10.dtd">
<svg version="1.0" xmlns="http://www.w3.org/2000/svg"
 width="512.000000pt" height="512.000000pt" viewBox="0 0 512.000000 512.000000"
 preserveAspectRatio="xMidYMid meet">

<g transform="translate(0.000000,512.000000) scale(0.100000,-0.100000)"
fill="#fff" stroke="none">
<path d="M3055 5104 c-85 -44 -116 -125 -80 -210 8 -20 72 -94 142 -165 l126
-129 -464 0 c-255 0 -482 -5 -503 -10 -152 -35 -178 -233 -40 -300 39 -19 62
-20 529 -20 l489 0 -141 -143 c-151 -153 -163 -174 -149 -252 8 -40 46 -90 87
-110 36 -19 102 -19 143 0 18 9 159 143 313 298 303 304 314 319 299 404 -7
33 -44 75 -299 332 -161 161 -306 299 -324 307 -42 18 -91 18 -128 -2z"/>
<path d="M394 3986 c-107 -47 -120 -208 -22 -278 32 -23 39 -23 333 -28 l300
-5 320 -1230 c177 -679 329 -1245 340 -1263 11 -18 35 -42 53 -52 32 -20 60
-20 1261 -20 l1228 0 40 29 c27 20 46 44 56 73 36 97 510 1946 510 1989 1 60
-31 111 -87 138 -42 21 -44 21 -1674 21 -898 0 -1632 2 -1632 5 0 30 -144 546
-158 565 -10 14 -34 35 -52 48 -33 22 -35 22 -409 22 -292 -1 -383 -4 -407
-14z m4046 -959 c0 -7 -92 -367 -205 -801 -113 -433 -205 -790 -205 -792 0 -2
-474 -4 -1053 -4 l-1053 0 -207 798 c-114 438 -207 800 -207 805 0 4 659 7
1465 7 1171 0 1465 -3 1465 -13z"/>
<path d="M2415 2745 c-48 -17 -90 -61 -103 -109 -8 -26 0 -129 29 -408 21
-205 41 -385 45 -401 8 -38 51 -87 91 -103 105 -44 223 32 223 145 0 46 -64
681 -76 755 -8 50 -61 109 -112 124 -48 15 -47 15 -97 -3z"/>
<path d="M3435 2745 c-50 -18 -91 -62 -104 -112 -16 -65 -83 -762 -77 -798 8
-43 50 -94 93 -111 82 -35 169 -1 212 83 6 11 29 196 51 409 30 292 38 396 30
423 -11 44 -62 94 -109 110 -42 14 -46 13 -96 -4z"/>
<path d="M1995 981 c-218 -73 -355 -259 -355 -482 0 -228 157 -425 385 -484
257 -66 530 103 600 372 66 251 -94 521 -354 597 -71 21 -210 19 -276 -3z
m222 -322 c57 -28 97 -93 96 -159 -1 -100 -73 -171 -172 -172 -189 -1 -248
255 -77 333 54 24 100 24 153 -2z"/>
<path d="M3670 981 c-89 -29 -141 -60 -206 -125 -126 -126 -179 -303 -139
-461 76 -296 372 -463 649 -366 296 104 427 449 274 720 -62 108 -178 200
-300 235 -75 21 -207 20 -278 -3z m216 -320 c93 -42 130 -151 82 -241 -68
-128 -267 -119 -317 13 -15 40 -14 113 3 145 47 90 142 124 232 83z"/>
</g>
</svg>
